# xmcd CD database file
#
# Track frame offsets:
#	183
#	20283
#	60708
#	106533
#	125658
#	142833
#	163083
#	183258
#	202683
#	227658
#	242958
#	263208
#	276483
#	290733
#	306408
#
# Disc length: 4421 seconds
#
# Revision: 10
# Processed by: cddbd v1.5.2PL0 Copyright (c) Steve Scherf et al.
# Submitted via: CDex 1.51
#
DISCID=d711430f
DTITLE=John Williams and The Boston Pops - By Request... The Best of
DYEAR=1987
DGENRE=Classical
TTITLE0=Olympic Fanfare and Theme
TTITLE1=The Cowboys Overture
TTITLE2=Excerpts from Close Encounters Of The Third Kind
TTITLE3=March from Midway
TTITLE4=Flying Theme From "E.T."
TTITLE5=Luke And Leia Theme from Return Of The Jedi
TTITLE6=March from Superman
TTITLE7=Liberty Fanfare
TTITLE8=March from Raiders Of The Lost Ark
TTITLE9=Yoda's Theme from The Empire Strikes Back
TTITLE10=March from "1941"
TTITLE11=Theme from Jaws
TTITLE12=Imperial March from The Empire Strikes Back
TTITLE13=Mission Theme (Theme for NBC News)
TTITLE14=Main Theme From Star Wars
EXTD=YEAR: 1987
EXTT0=
EXTT1=
EXTT2=
EXTT3=
EXTT4=
EXTT5=
EXTT6=
EXTT7=
EXTT8=
EXTT9=
EXTT10=
EXTT11=
EXTT12=
EXTT13=
EXTT14=
PLAYORDER=
